<?xml version="1.0" encoding="UTF-8" standalone="no"?>
<!-- Created with Inkscape (http://www.inkscape.org/) -->

<svg
   xmlns:dc="http://purl.org/dc/elements/1.1/"
   xmlns:cc="http://creativecommons.org/ns#"
   xmlns:rdf="http://www.w3.org/1999/02/22-rdf-syntax-ns#"
   xmlns:svg="http://www.w3.org/2000/svg"
   xmlns="http://www.w3.org/2000/svg"
   xmlns:sodipodi="http://sodipodi.sourceforge.net/DTD/sodipodi-0.dtd"
   xmlns:inkscape="http://www.inkscape.org/namespaces/inkscape"
   width="512"
   height="512"
   viewBox="0 0 135.46666 135.46667"
   version="1.1"
   id="svg8"
   inkscape:version="0.92.4 (5da689c313, 2019-01-14)"
   sodipodi:docname="HEAL_icon.svg"
   inkscape:export-filename="C:\Users\Zippe\WorkGits\website-HEAL\assets\images\icon.png"
   inkscape:export-xdpi="96"
   inkscape:export-ydpi="96">
  <defs
     id="defs2" />
  <sodipodi:namedview
     id="base"
     pagecolor="#ffffff"
     bordercolor="#666666"
     borderopacity="1.0"
     inkscape:pageopacity="0.0"
     inkscape:pageshadow="2"
     inkscape:zoom="1.4"
     inkscape:cx="211.74603"
     inkscape:cy="120.35709"
     inkscape:document-units="mm"
     inkscape:current-layer="layer1"
     showgrid="false"
     units="px"
     inkscape:window-width="1920"
     inkscape:window-height="1017"
     inkscape:window-x="-8"
     inkscape:window-y="-8"
     inkscape:window-maximized="1" />
  <metadata
     id="metadata5">
    <rdf:RDF>
      <cc:Work
         rdf:about="">
        <dc:format>image/svg+xml</dc:format>
        <dc:type
           rdf:resource="http://purl.org/dc/dcmitype/StillImage" />
        <dc:title></dc:title>
      </cc:Work>
    </rdf:RDF>
  </metadata>
  <g
     inkscape:label="Layer 1"
     inkscape:groupmode="layer"
     id="layer1"
     transform="translate(0,-161.53332)">
    <g
       id="g848"
       transform="matrix(1.1661929,0,0,1,-59.36292,71.200788)">
      <path
         sodipodi:nodetypes="cscccsc"
         inkscape:connector-curvature="0"
         id="path826"
         d="m 111.50297,109.52381 c -12.102453,19.32524 -20.05067,30.76214 -32.141639,52.57248 -2.347835,4.23515 -4.174118,7.3899 -4.333059,16.21918 1.52497,22.80119 15.876394,35.26348 36.852678,37.04167 20.94158,-1.79774 36.01084,-12.03105 37.04166,-37.04167 -0.69428,-8.3015 -1.46168,-10.57853 -3.6674,-14.58599 -7.10516,-12.90901 -18.49125,-31.1704 -33.75224,-54.20567 z"
         style="fill:none;stroke:#0051ba;stroke-width:20.76499939;stroke-linecap:butt;stroke-linejoin:miter;stroke-miterlimit:4;stroke-dasharray:none;stroke-opacity:1" />
      <path
         sodipodi:nodetypes="cscccsc"
         inkscape:connector-curvature="0"
         id="path826-4"
         d="m 112.10422,155.99287 c -3.91663,6.25409 -6.48886,9.95533 -10.40177,17.01365 -0.75981,1.37059 -1.35084,2.39154 -1.40228,5.2489 0.49352,7.37898 5.13797,11.41207 11.92637,11.98753 6.77717,-0.58179 11.65393,-3.89352 11.98753,-11.98753 -0.22469,-2.68656 -0.47304,-3.42345 -1.18686,-4.72036 -2.29939,-4.17765 -5.98419,-10.08745 -10.92299,-17.54219 z"
         style="fill:none;stroke:#ffc82d;stroke-width:13.96100044;stroke-linecap:butt;stroke-linejoin:miter;stroke-miterlimit:4;stroke-dasharray:none;stroke-opacity:1" />
      <rect
         y="171.13394"
         x="107.34524"
         height="10.961308"
         width="10.394345"
         id="rect843"
         style="fill:none;fill-opacity:1;stroke:#ffc82d;stroke-width:13.96099949;stroke-miterlimit:4;stroke-dasharray:none;stroke-opacity:1" />
    </g>
  </g>
</svg>
